<?xml version="1.0" encoding="UTF-8" standalone="no"?>
<svg width="291px" height="95px" viewBox="0 0 291 95" version="1.1" xmlns="http://www.w3.org/2000/svg" xmlns:xlink="http://www.w3.org/1999/xlink">
    <!-- Generator: Sketch 49.2 (51160) - http://www.bohemiancoding.com/sketch -->
    <title>Group</title>
    <desc>Created with Sketch.</desc>
    <defs></defs>
    <g id="Page-1" stroke="none" stroke-width="1" fill="none" fill-rule="evenodd">
        <g id="Artboard-Copy-4" transform="translate(-216.000000, -135.000000)">
            <g id="Group-5" transform="translate(213.000000, 133.000000)">
                <g id="Group-3">
                    <g id="Group" transform="translate(3.000000, 2.000000)">
                        <path d="M1.38,20.92 L5.8,20.92 L13.076,65.664 L21.372,21.736 L25.656,21.736 L34.156,65.732 L40.888,20.92 L45.24,20.92 L36.332,76 L32.32,76 L23.548,30.576 L14.912,76 L10.696,76 L1.38,20.92 Z M49.3380001,20.92 L61.7820001,20.92 C66.7233581,20.92 70.2366563,22.1099881 72.3220001,24.49 C74.4073439,26.8700119 75.4500001,30.3493104 75.4500001,34.928 C75.4500001,38.4186841 74.8833391,41.297322 73.7500001,43.564 C72.6166611,45.830678 70.6446808,47.2586637 67.8340001,47.848 L76.2660001,76 L71.2340001,76 L63.1420001,48.936 L54.5060001,48.936 L54.5060001,76 L49.3380001,76 L49.3380001,20.92 Z M61.5100001,45.128 C64.81935,45.128 67.1313269,44.3120082 68.4460001,42.68 C69.7606733,41.0479918 70.4180001,38.4640177 70.4180001,34.928 C70.4180001,31.3466488 69.794673,28.7626746 68.5480001,27.176 C67.3013272,25.5893254 65.0006835,24.796 61.6460001,24.796 L54.5060001,24.796 L54.5060001,45.128 L61.5100001,45.128 Z M80.9760002,20.92 L100.9,20.92 L100.9,24.932 L86.2120002,24.932 L86.2120002,45.604 L98.1800002,45.604 L98.1800002,49.412 L86.2120002,49.412 L86.2120002,72.124 L101.036,72.124 L101.036,76 L80.9760002,76 L80.9760002,20.92 Z M106.834,72.702 C104.567322,70.0499867 103.275335,66.3893567 102.958,61.72 L107.514,60.36 C107.922002,64.2586862 108.79466,67.2506562 110.132,69.336 C111.46934,71.4213438 113.679318,72.464 116.762,72.464 C121.930026,72.464 124.514,69.8120265 124.514,64.508 C124.514,62.241322 123.981339,60.2466753 122.916,58.524 C121.850662,56.8013247 120.139345,54.8293444 117.782,52.608 L108.058,43.292 C106.289991,41.6599918 105.009338,39.9486756 104.216,38.158 C103.422663,36.3673244 103.026,34.3840109 103.026,32.208 C103.026,28.4453145 104.147989,25.532677 106.392,23.47 C108.636012,21.407323 111.661981,20.376 115.47,20.376 C119.550021,20.376 122.677989,21.4639891 124.854,23.64 C127.030011,25.8160109 128.299332,29.374642 128.662,34.316 L124.242,35.472 C123.969999,31.7546481 123.188007,28.9893424 121.896,27.176 C120.603994,25.3626576 118.462015,24.456 115.47,24.456 C113.112655,24.456 111.231341,25.0679939 109.826,26.292 C108.42066,27.5160061 107.718,29.3293213 107.718,31.732 C107.718,33.273341 108.012664,34.6559939 108.602,35.88 C109.191337,37.1040061 110.18866,38.3959932 111.594,39.756 L121.318,48.936 C123.811346,51.2933451 125.771993,53.707321 127.2,56.178 C128.628007,58.648679 129.342,61.3119857 129.342,64.168 C129.342,68.1573533 128.186012,71.2399891 125.874,73.416 C123.561989,75.5920109 120.502019,76.68 116.694,76.68 C112.387312,76.68 109.100678,75.3540133 106.834,72.702 Z M139.968,24.932 L129.564,24.932 L129.564,20.92 L155.268,20.92 L155.268,24.932 L145.136,24.932 L145.136,76 L139.968,76 L139.968,24.932 Z M158.210001,20.92 L163.378001,20.92 L163.378001,72.124 L179.018001,72.124 L179.018001,76 L158.210001,76 L158.210001,20.92 Z M181.008001,20.92 L200.932001,20.92 L200.932001,24.932 L186.244001,24.932 L186.244001,45.604 L198.212001,45.604 L198.212001,49.412 L186.244001,49.412 L186.244001,72.124 L201.068001,72.124 L201.068001,76 L181.008001,76 L181.008001,20.92 Z" id="WRESTLE" fill="#FFFFFF"></path>
                        <path d="M207.596,71.75 C205.374656,68.5086505 204.264,64.0320286 204.264,58.32 L204.264,38.872 C204.264,32.8426365 205.351989,28.2640156 207.528,25.136 C209.704011,22.0079844 213.557306,20.444 219.088,20.444 C224.029358,20.444 227.576656,21.78132 229.73,24.456 C231.883344,27.13068 232.96,31.0746406 232.96,36.288 L232.96,40.64 L225.684,40.64 L225.684,36.764 C225.684,34.2253206 225.570668,32.2760068 225.344,30.916 C225.117332,29.5559932 224.539338,28.4680041 223.61,27.652 C222.680662,26.8359959 221.19601,26.428 219.156,26.428 C217.070656,26.428 215.518005,26.8699956 214.498,27.754 C213.477995,28.6380044 212.809335,29.8619922 212.492,31.426 C212.174665,32.9900078 212.016,35.0866535 212.016,37.716 L212.016,59.544 C212.016,62.3546807 212.242664,64.5533254 212.696,66.14 C213.149336,67.7266746 213.885995,68.8599966 214.906,69.54 C215.926005,70.2200034 217.342658,70.56 219.156,70.56 C221.105343,70.56 222.555995,70.1293376 223.508,69.268 C224.460005,68.4066624 225.060665,67.2280075 225.31,65.732 C225.559335,64.2359925 225.684,62.1960129 225.684,59.612 L225.684,55.532 L232.96,55.532 L232.96,59.612 C232.96,65.0973608 231.928677,69.3019854 229.866,72.226 C227.803323,75.1500146 224.210692,76.612 219.088,76.612 C213.647973,76.612 209.817344,74.9913495 207.596,71.75 Z M245.898,20.92 L253.31,20.92 L265.074,76 L257.798,76 L255.282,62.128 L244.062,62.128 L241.41,76 L234.202,76 L245.898,20.92 Z M254.262,56.62 L249.638,31.8 L245.082,56.62 L254.262,56.62 Z M267.54,20.92 L275.224,20.92 L275.224,70.492 L289.3,70.492 L289.3,76 L267.54,76 L267.54,20.92 Z" id="CAL" fill="#FFFFFF"></path>
                        <rect id="Rectangle" fill="#5D5D5D" x="0" y="0" width="291" height="4"></rect>
                        <rect id="Rectangle" fill="#5D5D5D" x="0" y="91" width="291" height="4"></rect>
                    </g>
                </g>
            </g>
        </g>
    </g>
</svg>